<svg id="Layer_1" data-name="Layer 1" xmlns="http://www.w3.org/2000/svg" xmlns:xlink="http://www.w3.org/1999/xlink" viewBox="0 0 3336.86 1100.97"><defs><style>.cls-1{fill:#07529a;}.cls-2{fill:#909085;}.cls-3{fill:#f9ba00;}.cls-4{opacity:0.75;}.cls-5{clip-path:url(#clip-path);}.cls-6{clip-path:url(#clip-path-2);}.cls-7{opacity:0.5;}.cls-8{clip-path:url(#clip-path-3);}.cls-9{clip-path:url(#clip-path-4);}.cls-10{opacity:0.1;}.cls-11{clip-path:url(#clip-path-5);}.cls-12{clip-path:url(#clip-path-6);}.cls-13{clip-path:url(#clip-path-7);}.cls-14{clip-path:url(#clip-path-8);}</style><clipPath id="clip-path" transform="translate(-16.76 -555.47)"><rect class="cls-1" x="3225.46" y="1029.04" width="56.19" height="56.19"/></clipPath><clipPath id="clip-path-2" transform="translate(-16.76 -555.47)"><rect class="cls-1" x="3225.45" y="1029.05" width="56.2" height="56.17"/></clipPath><clipPath id="clip-path-3" transform="translate(-16.76 -555.47)"><rect class="cls-1" x="3297.4" y="957.06" width="56.22" height="56.19"/></clipPath><clipPath id="clip-path-4" transform="translate(-16.76 -555.47)"><rect class="cls-1" x="3297.42" y="957.07" width="56.2" height="56.17"/></clipPath><clipPath id="clip-path-5" transform="translate(-16.76 -555.47)"><rect class="cls-1" x="3153.48" y="957.06" width="56.19" height="56.19"/></clipPath><clipPath id="clip-path-6" transform="translate(-16.76 -555.47)"><rect class="cls-1" x="3153.49" y="957.07" width="56.17" height="56.17"/></clipPath><clipPath id="clip-path-7" transform="translate(-16.76 -555.47)"><rect class="cls-1" x="3297.4" y="1101.02" width="56.22" height="56.19"/></clipPath><clipPath id="clip-path-8" transform="translate(-16.76 -555.47)"><rect class="cls-1" x="3297.42" y="1101.02" width="56.2" height="56.18"/></clipPath></defs><title>Logo UBo-BonnEconLab</title><path class="cls-1" d="M1316,729.53c52.26-61.53,81.66-112,105.16-174H1018.45v348c79.67-10.76,191.39-48.92,297.58-173.94" transform="translate(-16.76 -555.47)"/><path class="cls-2" d="M1649,555.47H1447.53c-24.11,65.62-60.74,132-116.4,197.54-109.62,129.06-231,167.92-312.68,178.69v49H1649Z" transform="translate(-16.76 -555.47)"/><path class="cls-3" d="M1196.3,1058c-19.23,0-25.19,9.77-25.19,41.6s6,41.6,25.19,41.6c19.39,0,25.37-9.77,25.37-41.6s-6-41.6-25.37-41.6" transform="translate(-16.76 -555.47)"/><path class="cls-3" d="M1090.58,1105.07h-21v36.14l21.71.16c15.42,0,20.23-3.15,20.23-16.9,0-15.25-5.14-19.22-20.89-19.4" transform="translate(-16.76 -555.47)"/><path class="cls-3" d="M1108.82,1073.58c0-12.76-5-15.73-20.23-15.73h-19.06V1090h20.72c13.92,0,18.57-3.32,18.57-16.42" transform="translate(-16.76 -555.47)"/><path class="cls-3" d="M1018.5,1185.94H1649V1008.72H1018.5Zm76.23-27.83c-20.89,0-31.83-.16-45.59-1.32V1042.43c12.28-1.16,22.21-1.33,40.45-1.33,28.84,0,39.11,6.29,39.11,29.84,0,16.41-5.63,24.86-19.56,26.18v.67c17.24,1.48,23,12.26,23,30.5,0,23.53-10.77,29.82-37.45,29.82m101.56.84c-34.79,0-47-13.93-47-59.34s12.26-59.34,47-59.34c35,0,47.25,13.92,47.25,59.34s-12.27,59.34-47.25,59.34m161.75-9.79c0,5-2.66,7.63-7.63,7.63H1334c-4.47,0-6.79-2-8.61-6.29l-32.16-70.11c-2.15-4.64-5.64-11.77-6.8-17.08h-2a120,120,0,0,1,1,17.24v76.24h-20.39V1050.05c0-5,2.82-7.62,7.79-7.62h16.08c4.48,0,6.63,2,8.62,6.29l31.16,68.13c2.16,5,5.47,11.93,8,18.06h2c-.5-6.3-.82-12.42-.82-18.56v-73.92H1358Zm118.48,0c0,5-2.65,7.63-7.63,7.63h-16.41c-4.48,0-6.79-2-8.62-6.29l-32.15-70.11c-2.16-4.64-5.63-11.77-6.8-17.08h-2a121.44,121.44,0,0,1,1,17.24v76.24h-20.4V1050.05c0-5,2.83-7.62,7.8-7.62h16.08c4.48,0,6.63,2,8.61,6.29l31.17,68.13c2.16,5,5.46,11.93,8,18.06h2c-.5-6.3-.83-12.42-.83-18.56v-73.92h20.23Z" transform="translate(-16.76 -555.47)"/><path class="cls-2" d="M101,1112.68c0,33.48-11.12,46.26-41.45,46.26-31.34,0-42.79-12.78-42.79-46.26v-70.31H33.35v70.31c0,23.53,6.47,31.5,25.53,31.5,18.74,0,25.54-8,25.54-31.5v-70.31H101Z" transform="translate(-16.76 -555.47)"/><path class="cls-2" d="M217.62,1150.31c0,4.31-2.15,6.47-6.14,6.47H195.74c-3.66,0-5.64-1.65-7.14-5.13l-35.65-78c-2-4.3-5.47-11.1-6.8-15.91h-2.31a130.16,130.16,0,0,1,.81,15.91v83.08H128.08V1048.84c0-4.31,2.32-6.47,6.31-6.47h15.25c3.65,0,5.63,1.66,7.29,5.13l34.66,76c2.15,4.65,5.47,11.28,8,17.09H202c-.5-6-.82-11.78-.82-17.75v-80.42h16.41Z" transform="translate(-16.76 -555.47)"/><rect class="cls-2" x="228.78" y="486.89" width="16.58" height="114.41"/><path class="cls-2" d="M341.24,1152.14a6.62,6.62,0,0,1-6.3,4.64H318.69a6.62,6.62,0,0,1-6.3-4.64l-33.83-109.77h17.08l25.87,89c1.16,4.14,2.15,8.47,3.15,12.6h4.48c.83-4.13,2-8.46,3.15-12.6l25.7-89h17.08Z" transform="translate(-16.76 -555.47)"/><path class="cls-2" d="M462.68,1155.79c-15.1,1.32-32.67,1.32-49.09,1.32-14.26,0-22.88-8-23-20.56v-74c.17-12.6,8.95-20.56,23-20.56,16.42,0,34,0,49.09,1.33l-.83,12.93H416.41c-6.63,0-9.12,2.82-9.12,10.6v22.89h48.25v13.44H407.29v29.17c0,7.8,2.49,10.61,9.12,10.61h45.44Z" transform="translate(-16.76 -555.47)"/><path class="cls-2" d="M549,1156.78l-9.78-35.65c-2.66-8.29-7.13-11.44-14.43-11.44l-23.55-.16v47.25H484.78V1042.37c12.6-1.33,21.22-1.49,40-1.49,26.86,0,37.8,7.46,37.8,33.16,0,18.08-5.8,27.2-21,29.19v.82c5.63,1.66,11.94,6.64,14.43,16.58l10.77,36.15Zm-24.54-61.35c16.08-.16,21.39-4.64,21.39-20.39s-5.31-19.9-21.39-19.9c-9,0-16.91,0-23.22.16v40.13Z" transform="translate(-16.76 -555.47)"/><path class="cls-2" d="M654.63,1043.87l-1,12.1c-9.61-.33-22-.83-32.82-.83-15.59,0-21.56.66-21.56,15.91,0,11.78,4.14,14.93,13.76,17.42l22.71,6.3c17.75,4.81,23.22,15.42,23.22,32.49,0,26.37-11.44,31.51-39,31.51a192.94,192.94,0,0,1-36-3.32l1.16-12.26c20.73.66,26.53.82,35.16.82,16.74-.16,21.72-2.65,21.72-16.91,0-12.43-4.32-15.08-13.6-17.57l-23.21-6.47c-16.75-4.64-22.72-15.09-22.72-32.51,0-26.52,11.78-30.17,37.63-30.17,10.79,0,22.89.66,34.5,3.49" transform="translate(-16.76 -555.47)"/><rect class="cls-2" x="664.28" y="486.89" width="16.58" height="114.41"/><polygon class="cls-2" points="751.52 501.65 751.52 601.3 734.77 601.3 734.77 501.65 698.79 501.65 698.79 486.89 787.83 486.89 787.83 501.65 751.52 501.65"/><path class="cls-2" d="M828,1122.29l-10.61,34.49H800.33l36-109.94a5.9,5.9,0,0,1,6-4.47H859.2a6.11,6.11,0,0,1,6.14,4.47l36,109.94H884.24l-10.62-34.49Zm5.47-92.35c-3,0-4.31-1.33-4.31-4.47v-9c0-2.66,1.33-4.48,4.31-4.48h5.31c3,0,4.31,1.82,4.31,4.48v9c0,3.14-1.32,4.47-4.31,4.47Zm22.22,34.49c-.82-3-2-6.31-2.65-9.29h-4.47c-1,3-2,6.3-2.83,9.29l-13.26,43.43h36.64Zm7.13-34.49c-3,0-4.31-1.33-4.31-4.47v-9c0-2.66,1.33-4.48,4.31-4.48h5.31a4.18,4.18,0,0,1,4.48,4.48v9c0,3.14-1.66,4.47-4.48,4.47Z" transform="translate(-16.76 -555.47)"/><polygon class="cls-2" points="933 501.65 933 601.3 916.27 601.3 916.27 501.65 880.29 501.65 880.29 486.89 969.33 486.89 969.33 501.65 933 501.65"/><path class="cls-1" d="M1847.63,1081c22.42,1.94,30,16,30,39.67,0,30.62-14,38.81-48.73,38.81-27.16,0-41.39-.21-59.29-1.72V1008.94c16-1.51,28.89-1.73,52.61-1.73,37.52,0,50.88,8.2,50.88,38.81,0,21.35-7.33,32.34-25.44,34.07Zm-51.53-52v41.83h27c18.11,0,24.15-4.31,24.15-21.35,0-16.6-6.47-20.48-26.3-20.48Zm28.25,108.67c20.05,0,26.3-4.1,26.3-22,0-19.83-6.68-25-27.17-25.22H1796.1v47Z" transform="translate(-16.76 -555.47)"/><path class="cls-1" d="M2004.8,1104.88c0,40.54-14,55.63-52,55.63-38.16,0-52.39-15.09-52.39-55.63s14.23-55.84,52.39-55.84C1990.79,1049,2004.8,1064.35,2004.8,1104.88Zm-77,0c0,27.17,5.61,34.72,25,34.72,19,0,24.8-7.55,24.8-34.72,0-27.38-5.82-34.92-24.8-34.92C1933.44,1070,1927.83,1077.5,1927.83,1104.88Z" transform="translate(-16.76 -555.47)"/><path class="cls-1" d="M2130.06,1078.36v79.35h-26.3v-71.37c0-11.86-2.8-15.09-11.21-15.09-10.57,0-20.05,4.74-34.93,12.94l.22,73.52h-26.31V1052.06h22l1.73,15.74c15.09-11.64,30.18-18.76,45.71-18.76C2119.72,1049,2130.06,1059.39,2130.06,1078.36Z" transform="translate(-16.76 -555.47)"/><path class="cls-1" d="M2259.21,1078.36v79.35h-26.3v-71.37c0-11.86-2.81-15.09-11.22-15.09-10.56,0-20.05,4.74-34.92,12.94l.21,73.52h-26.3V1052.06h22l1.72,15.74c15.1-11.64,30.19-18.76,45.71-18.76C2248.86,1049,2259.21,1059.39,2259.21,1078.36Z" transform="translate(-16.76 -555.47)"/><path d="M2388.57,1156.63c-20.27,1.29-42.47,1.29-63.6,1.29-16,0-26.31-9.7-26.31-24.58v-100c0-14.87,10.57-24.58,26.31-24.58,21.13,0,43.33,0,63.6,1.3l-.86,10.78h-60.37c-9.27,0-14.45,5.39-14.45,15.74V1073h66.41v11.43h-66.41v45.93c0,10.13,5.18,15.52,14.45,15.52h60.37Z" transform="translate(-16.76 -555.47)"/><path d="M2493.13,1055.29l-2.15,8.84a214.28,214.28,0,0,0-27.81-1.72c-27.17,0-36.87,9.7-36.87,43.12s9.7,42.91,36.87,42.91c6.25,0,20.26-.43,30.4-2.37l1.51,9.48a125,125,0,0,1-34.07,4.75c-35.79,0-48.94-14.45-48.94-54.77s13.15-55,48.94-55C2469.63,1050.55,2483.22,1051.63,2493.13,1055.29Z" transform="translate(-16.76 -555.47)"/><path d="M2609.77,1105.53c0,40.1-12.72,54.77-47.86,54.77s-48.08-14.67-48.08-54.77,12.93-55,48.08-55S2609.77,1065.43,2609.77,1105.53Zm-81.5,0c0,33,8.41,43.12,33.64,43.12s33.63-10.13,33.63-43.12-8.41-43.12-33.63-43.12S2528.27,1072.54,2528.27,1105.53Z" transform="translate(-16.76 -555.47)"/><path d="M2728.78,1079.23v78.48H2715.2v-74.82c0-14.87-5.39-20.48-18.11-20.48-13.59,0-25.66,6.47-43.56,18.11l.22,77.19H2640V1053.35h11.43l.86,17.25c16.6-12.72,32.56-20,48.51-20C2719.08,1050.55,2728.78,1060.47,2728.78,1079.23Z" transform="translate(-16.76 -555.47)"/><path d="M2779.88,1130.11c0,10.35,5.39,15.74,15.52,15.74h55.41l.43,10.78c-19,1.08-38.81,1.29-58.21,1.29-18.76,0-27.38-11-27.38-25.87V1008.94h14.23Z" transform="translate(-16.76 -555.47)"/><path d="M2955.8,1082.68v75H2945l-1.72-18.33c-8.62,8.63-26.09,20-45.71,20-18.11,0-29.75-9.91-29.75-28.24v-12.08c0-16.17,9.91-25.44,27.38-25.44H2942v-11c0-13.16-5-20.27-22.21-20.27-12.51,0-30.4,1.29-46.36,3l-1.29-10.14c14.23-2.15,32.56-4.74,50.24-4.74C2943.73,1050.55,2955.8,1058.74,2955.8,1082.68ZM2942,1129.89v-25.65l-44.63.43c-11,.43-15.74,6-15.74,16.17v9.05c0,11.86,6,17.47,18.32,17.47C2912,1147.57,2929.5,1140.89,2942,1129.89Z" transform="translate(-16.76 -555.47)"/><path d="M3081.28,1105.32c0,37.08-11,55-44.84,55a164.83,164.83,0,0,1-46.57-7.12v-146.4h13.58v41.83c0,8.84,0,15.09-1.51,22.42,13.37-13.15,27.17-20.48,41.4-20.48C3069.86,1050.55,3081.28,1065.86,3081.28,1105.32Zm-14.23,0c0-31.48-6.46-42.69-27.59-42.69-12.08,0-21.78,6.68-36,17.68v64a112.2,112.2,0,0,0,32.77,4.1C3058.43,1148.44,3067.05,1137.23,3067.05,1105.32Z" transform="translate(-16.76 -555.47)"/><rect class="cls-1" x="3136.73" y="545.54" width="56.18" height="56.18"/><g class="cls-4"><rect class="cls-1" x="3208.7" y="473.56" width="56.19" height="56.19"/><g class="cls-5"><rect class="cls-1" x="3208.69" y="473.57" width="56.2" height="56.17"/><g class="cls-6"><rect class="cls-1" x="3208.7" y="473.57" width="56.18" height="56.17"/></g></g></g><g class="cls-7"><rect class="cls-1" x="3280.64" y="401.59" width="56.22" height="56.19"/><g class="cls-8"><rect class="cls-1" x="3280.66" y="401.6" width="56.2" height="56.17"/><g class="cls-9"><rect class="cls-1" x="3280.67" y="401.6" width="56.18" height="56.17"/></g></g></g><g class="cls-10"><rect class="cls-1" x="3136.72" y="401.59" width="56.19" height="56.19"/><g class="cls-11"><rect class="cls-1" x="3136.72" y="401.6" width="56.17" height="56.17"/><g class="cls-12"><rect class="cls-1" x="3136.71" y="401.6" width="56.18" height="56.17"/></g></g></g><g class="cls-10"><rect class="cls-1" x="3280.64" y="545.54" width="56.22" height="56.19"/><g class="cls-13"><rect class="cls-1" x="3280.66" y="545.54" width="56.2" height="56.18"/><g class="cls-14"><rect class="cls-1" x="3280.67" y="545.54" width="56.18" height="56.18"/></g></g></g><path d="M1135.52,1363.05l-7.08-25.08c-2.09-6-5.34-8.35-10.68-8.35-7.43,0-13.24-.12-17.65-.12v33.55H1090V1283c8.71-.93,14.74-1,27.63-1,18.57,0,25.89,5.11,25.89,23.1,0,13-4.18,19.28-14.75,20.67v.58c4,1,8.13,4.76,9.87,11.49l7.78,25.31Zm-18.11-42.26c11.84-.11,15.78-3.36,15.78-15.21s-3.94-14.85-15.78-14.85c-6.85,0-12.77.11-17.3.11v30Z" transform="translate(-16.76 -555.47)"/><path d="M1210.4,1320.68v42.37h-10v-39.59c0-7.54-2.2-10-8-10-6.73,0-12.77,3.13-21.82,8.82v40.75h-9.87v-81.26h9.87l.11,22.4a76.25,76.25,0,0,1-.69,11c8.47-6.15,16.71-10.1,25.07-10.1C1205.06,1305.12,1210.4,1310.46,1210.4,1320.68Z" transform="translate(-16.76 -555.47)"/><path d="M1273.32,1354.69l1,6.62c-5.34,2.2-15.44,3.13-21.94,3.13-19.5,0-27.05-8.12-27.05-29.83,0-22.18,7.78-29.49,26-29.49,17.06,0,24.26,6.27,24.26,18.46.12,10.1-4.06,16-13.47,16h-26.23c.93,13.47,6.15,16.48,17.76,16.48A156.61,156.61,0,0,0,1273.32,1354.69Zm-37.61-22.75h23.91c5.11,0,6.15-4.18,6.15-8.36-.11-7.2-3.83-10.1-13.93-10.1C1240.12,1313.48,1236.05,1317.66,1235.71,1331.94Z" transform="translate(-16.76 -555.47)"/><path d="M1298.16,1282.48a2.7,2.7,0,0,1,3,3v6.62c0,2.09-.93,3-3,3h-4.64c-2,0-3-.93-3-3v-6.62a2.75,2.75,0,0,1,3-3Zm-7.2,80.57v-56.54h9.76v56.54Z" transform="translate(-16.76 -555.47)"/><path d="M1369,1320.68v42.37h-9.87v-39.59c0-7.54-2.32-10-8.13-10-6.73,0-12.77,3.37-21.82,8.82v40.75h-9.87v-56.54h8.36l.69,8.94c8.6-6.62,17-10.33,25.31-10.33C1363.64,1305.12,1369,1310.46,1369,1320.68Z" transform="translate(-16.76 -555.47)"/><path d="M1394.4,1282.48a2.7,2.7,0,0,1,3,3v6.62c0,2.09-.93,3-3,3h-4.64c-2,0-3-.93-3-3v-6.62a2.75,2.75,0,0,1,3-3Zm-7.2,80.57v-56.54H1397v56.54Z" transform="translate(-16.76 -555.47)"/><path d="M1458.13,1306.86l-.81,7.2c-7.08-.23-14.39-.58-21.48-.58-10.44-.12-13.93.11-13.93,7.2,0,5.92,2.79,6.85,8.25,8.12l16.48,3.72c8.94,2.2,13.12,5.92,13.12,15.55,0,13.93-7.78,16.26-24.15,16.26a144.82,144.82,0,0,1-22.17-1.63l.7-7.2c5.57.35,12.18.58,19.5.47,12.65,0,16.6-1.16,16.6-7.9,0-5.57-3.48-6.61-8.94-7.89l-16.25-3.72c-9.17-2.2-12.77-6.5-12.77-15.78,0-13.12,6.61-15.79,22-15.56A199.58,199.58,0,0,1,1458.13,1306.86Z" transform="translate(-16.76 -555.47)"/><path d="M1516.88,1307.79l-1.28,6.39c-5.11-.47-11.38-.7-15.33-.7-13.46,0-18.11,4.76-18.11,21.24s4.65,21.36,18.11,21.36a120.56,120.56,0,0,0,16.61-1.16l1,6.62a61.78,61.78,0,0,1-19.39,2.9c-19.5,0-26.81-7.89-26.81-29.72s7.31-29.6,26.93-29.6C1503.64,1305.12,1511.3,1305.7,1516.88,1307.79Z" transform="translate(-16.76 -555.47)"/><path d="M1581,1320.68v42.37h-10v-39.59c0-7.54-2.2-10-8-10-6.73,0-12.77,3.13-21.82,8.82v40.75h-9.87v-81.26h9.87l.12,22.4a76.11,76.11,0,0,1-.7,11c8.47-6.15,16.72-10.1,25.07-10.1C1575.62,1305.12,1581,1310.46,1581,1320.68Z" transform="translate(-16.76 -555.47)"/><path d="M1643.88,1354.69l1,6.62c-5.34,2.2-15.44,3.13-21.94,3.13-19.5,0-27-8.12-27-29.83,0-22.18,7.77-29.49,26-29.49,17.06,0,24.26,6.27,24.26,18.46.12,10.1-4.06,16-13.47,16H1606.5c.93,13.47,6.15,16.48,17.76,16.48A156.47,156.47,0,0,0,1643.88,1354.69Zm-37.61-22.75h23.91c5.11,0,6.15-4.18,6.15-8.36-.11-7.2-3.83-10.1-13.93-10.1C1610.68,1313.48,1606.61,1317.66,1606.27,1331.94Z" transform="translate(-16.76 -555.47)"/><path d="M631,1437.48c-5.46,0-7.78,2.33-7.78,7.67v18.57h33.43V1472H623.26v37H613v-65.82c0-9.17,6-14.39,15.44-14.39,11.15,0,22.87,0,33.2.81l-.58,7.89Z" transform="translate(-16.76 -555.47)"/><path d="M707.19,1460.35h-3.25c-6.38,0-12.19,2.67-21.13,7.2V1509H673v-56.53h7.66l1,8.94c8.13-6.5,16.49-10.33,24.15-10.33h2.55Z" transform="translate(-16.76 -555.47)"/><path d="M727.16,1428.43a2.7,2.7,0,0,1,3,3v6.61c0,2.09-.93,3-3,3h-4.64c-2,0-3-.93-3-3v-6.61a2.75,2.75,0,0,1,3-3ZM720,1509v-56.53h9.75V1509Z" transform="translate(-16.76 -555.47)"/><path d="M793.45,1500.64l1,6.61c-5.34,2.21-15.44,3.14-21.94,3.14-19.5,0-27-8.13-27-29.84,0-22.17,7.78-29.48,26-29.48,17.06,0,24.26,6.26,24.26,18.45.11,10.1-4.07,16-13.47,16H756.07C757,1499,762.22,1502,773.83,1502A156.74,156.74,0,0,0,793.45,1500.64Zm-37.62-22.76h23.92c5.11,0,6.15-4.18,6.15-8.36-.12-7.19-3.83-10.1-13.93-10.1C760.24,1459.42,756.18,1463.6,755.83,1477.88Z" transform="translate(-16.76 -555.47)"/><path d="M858.92,1509h-7.66l-.93-8.12c-6.15,5.34-13.7,9.52-22.41,9.52-14.27,0-19.85-10.1-19.85-29.84,0-22,6.85-29.48,21.36-29.48a42.41,42.41,0,0,1,20.09,5.1c-.35-3.59-.47-7.08-.47-11v-17.42h9.87Zm-27.74-7.19c6.26,0,10.21-2.33,17.87-7.78v-31.23c-6.61-1.86-11.37-3.13-17.29-3.13-9.76,0-13.59,4.06-13.59,20.78S822,1501.8,831.18,1501.8Z" transform="translate(-16.76 -555.47)"/><path d="M911.4,1460.35h-3.26c-6.38,0-12.18,2.67-21.12,7.2V1509h-9.87v-56.53h7.66l1.05,8.94c8.12-6.5,16.48-10.33,24.14-10.33h2.56Z" transform="translate(-16.76 -555.47)"/><path d="M931.36,1428.43a2.7,2.7,0,0,1,3,3v6.61c0,2.09-.93,3-3,3h-4.64c-2,0-3-.93-3-3v-6.61a2.75,2.75,0,0,1,3-3Zm-7.2,80.56v-56.53h9.76V1509Z" transform="translate(-16.76 -555.47)"/><path d="M994.86,1453.74l-1.27,6.38c-5.11-.46-11.38-.7-15.33-.7-13.46,0-18.11,4.76-18.11,21.25S964.8,1502,978.26,1502a120.33,120.33,0,0,0,16.6-1.16l1,6.62a61.78,61.78,0,0,1-19.39,2.9c-19.5,0-26.82-7.9-26.82-29.72s7.32-29.6,26.94-29.6C981.63,1451.07,989.29,1451.65,994.86,1453.74Z" transform="translate(-16.76 -555.47)"/><path d="M1058.94,1466.62V1509h-10v-39.58c0-7.55-2.2-10-8-10-6.73,0-12.77,3.14-21.82,8.83V1509h-9.87v-81.26h9.87l.11,22.41a76.25,76.25,0,0,1-.69,11c8.47-6.16,16.71-10.1,25.07-10.1C1053.6,1451.07,1058.94,1456.41,1058.94,1466.62Z" transform="translate(-16.76 -555.47)"/><path d="M1076,1483.45v-7.54h35.41v7.54Z" transform="translate(-16.76 -555.47)"/><path d="M1208.82,1506a4,4,0,0,1-4.06,3h-11.61a3.89,3.89,0,0,1-4-3.13l-12.54-60.25c-.69-3-1.27-6-1.86-9.06h-2.43l-1.74,9.06-12.43,60.25a4.11,4.11,0,0,1-4.06,3.13h-11.72a3.91,3.91,0,0,1-4-3l-16.25-77.09H1133l12.54,62.46c.58,3,1,6.27,1.63,9.87h2.67c.58-3.6,1.16-6.74,1.85-9.87l12.42-59.09a3.91,3.91,0,0,1,4-3.37h11.15a4.08,4.08,0,0,1,3.94,3.37l12.42,59.09c.7,3.36,1.28,6.62,1.63,9.87h2.9c.47-3.25.93-6.62,1.51-9.76l12.65-62.57h10.8Z" transform="translate(-16.76 -555.47)"/><path d="M1245.39,1428.43a2.7,2.7,0,0,1,3,3v6.61c0,2.09-.93,3-3,3h-4.64c-2,0-3-.93-3-3v-6.61a2.75,2.75,0,0,1,3-3Zm-7.2,80.56v-56.53h9.75V1509Z" transform="translate(-16.76 -555.47)"/><path d="M1276.39,1493.44c0,5,2.78,7.54,7.77,7.54h5.46l1.16,7.55c-2.21,1-7.55,1.51-10.33,1.51-8.36,0-13.82-5.11-13.82-14.4v-67.91h9.87Z" transform="translate(-16.76 -555.47)"/><path d="M1350.68,1466.62V1509h-10v-39.58c0-7.55-2.21-10-8-10-6.73,0-12.77,3.14-21.83,8.83V1509H1301v-81.26h9.86l.12,22.41a74.71,74.71,0,0,1-.7,11c8.48-6.16,16.72-10.1,25.08-10.1C1345.34,1451.07,1350.68,1456.41,1350.68,1466.62Z" transform="translate(-16.76 -555.47)"/><path d="M1413.6,1500.64l1.05,6.61c-5.34,2.21-15.44,3.14-21.94,3.14-19.5,0-27-8.13-27-29.84,0-22.17,7.78-29.48,26-29.48,17.07,0,24.27,6.26,24.27,18.45.11,10.1-4.07,16-13.47,16h-26.24c.93,13.47,6.16,16.49,17.77,16.49A156.45,156.45,0,0,0,1413.6,1500.64ZM1376,1477.88h23.92c5.1,0,6.15-4.18,6.15-8.36-.12-7.19-3.83-10.1-13.93-10.1C1380.4,1459.42,1376.34,1463.6,1376,1477.88Z" transform="translate(-16.76 -555.47)"/><path d="M1440.65,1493.44c0,5,2.79,7.54,7.78,7.54h5.46l1.16,7.55c-2.21,1-7.55,1.51-10.33,1.51-8.36,0-13.82-5.11-13.82-14.4v-67.91h9.87Z" transform="translate(-16.76 -555.47)"/><path d="M1549.2,1466.62V1509h-9.75v-39.58c-.12-7-2.56-10-8.83-10-5.8,0-10,2.56-18.57,8.71V1509h-9.52v-39.58c0-7.32-2.9-10-8.82-10-5.69,0-9.87,2.44-18.58,8.71V1509h-9.86v-56.53h8.12l.58,8.94c7.9-6.85,15.21-10.33,23.1-10.33s12.66,3.36,14.28,10.1c7.78-6.74,15.21-10.1,22.76-10.1C1543.86,1451.07,1549.2,1456.41,1549.2,1466.62Z" transform="translate(-16.76 -555.47)"/><path d="M1609.57,1452.81l-.82,7.19c-7.08-.23-14.39-.58-21.47-.58-10.45-.11-13.93.12-13.93,7.2,0,5.92,2.78,6.85,8.24,8.13l16.48,3.71c8.94,2.21,13.12,5.92,13.12,15.56,0,13.93-7.78,16.25-24.14,16.25a144.59,144.59,0,0,1-22.18-1.62l.7-7.2c5.57.35,12.19.58,19.5.46,12.66,0,16.6-1.16,16.6-7.89,0-5.57-3.48-6.62-8.94-7.9l-16.25-3.71c-9.17-2.21-12.77-6.5-12.77-15.79,0-13.12,6.62-15.79,22.06-15.55A195.64,195.64,0,0,1,1609.57,1452.81Z" transform="translate(-16.76 -555.47)"/><path d="M1625.24,1483.45v-7.54h35.41v7.54Z" transform="translate(-16.76 -555.47)"/><path d="M837.86,1624.29c0,23.22-7.66,32.16-28.67,32.16-21.71,0-29.61-8.94-29.61-32.16v-49.45H789.8v49.45c0,17.18,4.87,23,18.92,23s18.92-5.81,18.92-23v-49.45h10.22Z" transform="translate(-16.76 -555.47)"/><path d="M906.12,1612.57v42.37h-9.87v-39.59c0-7.54-2.32-10-8.12-10-6.74,0-12.77,3.37-21.83,8.82v40.75h-9.87V1598.4h8.36l.7,8.94c8.59-6.61,17-10.33,25.31-10.33C900.78,1597,906.12,1602.35,906.12,1612.57Z" transform="translate(-16.76 -555.47)"/><path d="M931.55,1574.37a2.69,2.69,0,0,1,3,3V1584c0,2.09-.92,3-3,3H926.9c-2,0-3-.93-3-3v-6.62a2.75,2.75,0,0,1,3-3Zm-7.2,80.57V1598.4h9.75v56.54Z" transform="translate(-16.76 -555.47)"/><path d="M982.28,1652.5a3.63,3.63,0,0,1-3.49,2.44h-8.94a3.63,3.63,0,0,1-3.48-2.44l-20.66-54.1h10.56L970.2,1638c1.16,3.25,2.32,6.73,3.37,9.87h1.51l3.48-9.87,13.93-39.59h10.45Z" transform="translate(-16.76 -555.47)"/><path d="M1058.66,1646.58l1,6.62c-5.34,2.2-15.44,3.13-21.94,3.13-19.5,0-27-8.12-27-29.83,0-22.17,7.78-29.49,26-29.49,17.07,0,24.27,6.27,24.27,18.46.11,10.1-4.07,16-13.47,16h-26.24c.93,13.47,6.16,16.48,17.77,16.48A156.45,156.45,0,0,0,1058.66,1646.58Zm-37.61-22.75H1045c5.1,0,6.15-4.18,6.15-8.36-.12-7.2-3.83-10.1-13.93-10.1C1025.46,1605.37,1021.4,1609.55,1021.05,1623.83Z" transform="translate(-16.76 -555.47)"/><path d="M1110.09,1606.3h-3.25c-6.38,0-12.19,2.67-21.13,7.2v41.44h-9.86V1598.4h7.66l1,8.94c8.13-6.5,16.49-10.33,24.15-10.33h2.55Z" transform="translate(-16.76 -555.47)"/><path d="M1165,1598.75l-.81,7.2c-7.08-.23-14.39-.58-21.48-.58-10.44-.12-13.93.12-13.93,7.2,0,5.92,2.79,6.85,8.25,8.12l16.48,3.72c8.94,2.2,13.12,5.92,13.12,15.55,0,13.93-7.78,16.26-24.15,16.26a144.82,144.82,0,0,1-22.17-1.63l.7-7.2c5.57.35,12.18.58,19.5.47,12.65,0,16.6-1.16,16.6-7.9,0-5.57-3.48-6.61-8.94-7.89l-16.25-3.71c-9.17-2.21-12.77-6.51-12.77-15.79,0-13.12,6.61-15.79,22-15.56A199.58,199.58,0,0,1,1165,1598.75Z" transform="translate(-16.76 -555.47)"/><path d="M1189,1574.37a2.7,2.7,0,0,1,3,3V1584c0,2.09-.93,3-3,3h-4.64c-2,0-3-.93-3-3v-6.62a2.75,2.75,0,0,1,3-3Zm-7.19,80.57V1598.4h9.75v56.54Z" transform="translate(-16.76 -555.47)"/><path d="M1224.33,1639.38c0,5.46,2.08,7.55,7.66,7.55h8.59l1.16,7.55A59.64,59.64,0,0,1,1229,1656c-9.52,0-14.51-5.45-14.51-15.32v-34.48h-10.22V1599l10.22-.58v-16.71h9.87v16.71h18v7.78h-18Z" transform="translate(-16.76 -555.47)"/><path d="M1300.48,1615.12v39.82h-7.78l-1.16-9.4c-4.29,4.41-13,10.44-23.45,10.44-10.1,0-16.83-5.57-16.83-15.78V1634c0-8.82,5.69-13.93,15.67-13.93h23.68v-5c-.11-7-2.55-9.75-11.49-9.75-6,0-15.67.7-24.38,1.51l-.93-7.31a190.38,190.38,0,0,1,27.4-2.56C1293.75,1597,1300.48,1601.42,1300.48,1615.12Zm-9.87,23.68v-11.26l-21.94.12c-5.45.23-7.43,3-7.43,7.78v3.6c0,5.92,2.79,8.47,8.83,8.47C1275.75,1647.63,1284,1644.84,1290.61,1638.8Zm-26-52c-1.86,0-2.67-.92-2.67-2.78v-6.39c0-1.74.81-2.78,2.67-2.78H1268c1.85,0,2.67,1,2.67,2.78V1584c0,1.86-.82,2.78-2.67,2.78Zm20.66,0c-2,0-2.78-.92-2.78-2.78v-6.39a2.45,2.45,0,0,1,2.78-2.78h3.25a2.56,2.56,0,0,1,2.79,2.78V1584a2.51,2.51,0,0,1-2.79,2.78Z" transform="translate(-16.76 -555.47)"/><path d="M1332.29,1639.38c0,5.46,2.09,7.55,7.66,7.55h8.59l1.16,7.55a59.5,59.5,0,0,1-12.77,1.5c-9.52,0-14.51-5.45-14.51-15.32v-34.48h-10.21V1599l10.21-.58v-16.71h9.87v16.71h18v7.78h-18Z" transform="translate(-16.76 -555.47)"/><path d="M1428.41,1613.61c12,1.05,16,8.59,16,21.36,0,16.49-7.19,20.9-25.54,20.9-13.69,0-20.54-.12-29.6-.93v-80.1c8-.81,14.16-.93,26-.93,19.62,0,26.71,4.41,26.71,20.9,0,11.49-4,17.41-13.59,18.34Zm-29.14-31v26.93h17.19c11.6-.12,15.67-2.79,15.67-13.58s-4.41-13.35-17.3-13.35Zm34.83,50.61c0-12.42-4.41-15.67-17.53-15.9h-17.3v29.72c4.76.11,11,.11,18,.11C1429.92,1647.16,1434.1,1644.61,1434.1,1633.23Z" transform="translate(-16.76 -555.47)"/><path d="M1510.72,1626.73c0,21.71-7.08,29.72-26.58,29.72s-26.59-8-26.59-29.72,7.2-29.72,26.59-29.72S1510.72,1605.14,1510.72,1626.73Zm-42.83,0c0,16.48,3.94,21.36,16.25,21.36s16.37-4.88,16.37-21.36-4.07-21.36-16.37-21.36S1467.89,1610.25,1467.89,1626.73Z" transform="translate(-16.76 -555.47)"/><path d="M1575.85,1612.57v42.37H1566v-39.59c0-7.54-2.32-10-8.12-10-6.74,0-12.77,3.37-21.83,8.82v40.75h-9.87V1598.4h8.36l.7,8.94c8.59-6.61,17-10.33,25.31-10.33C1570.51,1597,1575.85,1602.35,1575.85,1612.57Z" transform="translate(-16.76 -555.47)"/><path d="M1643.3,1612.57v42.37h-9.87v-39.59c0-7.54-2.32-10-8.13-10-6.73,0-12.76,3.37-21.82,8.82v40.75h-9.87V1598.4H1602l.7,8.94c8.59-6.61,16.95-10.33,25.31-10.33C1638,1597,1643.3,1602.35,1643.3,1612.57Z" transform="translate(-16.76 -555.47)"/><path d="M1786.59,1346.8c0,5.34,2.44,7.66,7.78,7.66h28.91l.46,7.89c-10.1.82-20.66.82-31,.82-11.84,0-16.26-6.39-16.26-15.1V1283h10.1Z" transform="translate(-16.76 -555.47)"/><path d="M1881.44,1323.23v39.82h-7.78l-1.16-9.4c-4.41,4.52-12.89,10.44-23.33,10.44-10.1,0-17-5.57-17-15.78v-6.16c0-8.82,5.8-13.93,15.67-13.93h23.57v-5c0-7-2.56-9.75-11.5-9.75-5.92,0-15.67.7-24.26,1.51l-.93-7.32a188.53,188.53,0,0,1,27.28-2.55C1874.59,1305.12,1881.44,1309.53,1881.44,1323.23Zm-10,23.91v-11.49l-21.83.12c-5.46.23-7.31,3-7.31,7.78v3.59c0,5.93,2.67,8.48,8.82,8.48C1856.71,1355.74,1864.84,1353,1871.46,1347.14Z" transform="translate(-16.76 -555.47)"/><path d="M1949.93,1334.61c0,19.38-5.68,29.83-25.07,29.83-7.9,0-18.46-1.39-26-4.06v-78.59h9.87v21.13a53.67,53.67,0,0,1-1,12.53c6.73-6.85,14.16-10.33,21.82-10.33C1943.43,1305.12,1949.93,1313.36,1949.93,1334.61Zm-10.21,0c-.12-15.56-2.79-20.9-13.7-20.9-5.81,0-10.8,3.25-17.41,8.48l.11,32a59.88,59.88,0,0,0,15.91,1.85C1935.54,1356,1939.6,1350.63,1939.72,1334.61Z" transform="translate(-16.76 -555.47)"/><path d="M2015.76,1334.84c0,21.71-7.09,29.72-26.59,29.72s-26.58-8-26.58-29.72,7.2-29.72,26.58-29.72S2015.76,1313.25,2015.76,1334.84Zm-42.84,0c0,16.48,3.95,21.36,16.25,21.36s16.37-4.88,16.37-21.36-4.06-21.36-16.37-21.36S1972.92,1318.35,1972.92,1334.84Z" transform="translate(-16.76 -555.47)"/><path d="M2065.44,1314.41h-3.25c-6.38,0-12.19,2.67-21.12,7.2v41.44h-9.87v-56.54h7.66l1.05,8.94c8.12-6.5,16.48-10.33,24.14-10.33h2.56Z" transform="translate(-16.76 -555.47)"/><path d="M2123.84,1323.23v39.82h-7.78l-1.16-9.4c-4.41,4.52-12.89,10.44-23.34,10.44-10.1,0-16.94-5.57-16.94-15.78v-6.16c0-8.82,5.8-13.93,15.67-13.93h23.56v-5c0-7-2.55-9.75-11.49-9.75-5.92,0-15.67.7-24.26,1.51l-.93-7.32a188.53,188.53,0,0,1,27.28-2.55C2117,1305.12,2123.84,1309.53,2123.84,1323.23Zm-10,23.91v-11.49l-21.82.12c-5.46.23-7.31,3-7.31,7.78v3.59c0,5.93,2.67,8.48,8.82,8.48C2099.11,1355.74,2107.24,1353,2113.85,1347.14Z" transform="translate(-16.76 -555.47)"/><path d="M2155.65,1347.49c0,5.46,2.09,7.55,7.66,7.55h8.59l1.16,7.54a58.93,58.93,0,0,1-12.77,1.51c-9.52,0-14.51-5.45-14.51-15.32v-34.48h-10.22v-7.2l10.22-.58V1289.8h9.87v16.71h18v7.78h-18Z" transform="translate(-16.76 -555.47)"/><path d="M2236.21,1334.84c0,21.71-7.08,29.72-26.58,29.72s-26.58-8-26.58-29.72,7.19-29.72,26.58-29.72S2236.21,1313.25,2236.21,1334.84Zm-42.83,0c0,16.48,3.95,21.36,16.25,21.36s16.37-4.88,16.37-21.36-4.06-21.36-16.37-21.36S2193.38,1318.35,2193.38,1334.84Z" transform="translate(-16.76 -555.47)"/><path d="M2285.9,1314.41h-3.25c-6.38,0-12.19,2.67-21.13,7.2v41.44h-9.86v-56.54h7.66l1,8.94c8.13-6.5,16.49-10.33,24.15-10.33h2.55Z" transform="translate(-16.76 -555.47)"/><path d="M2325.72,1366.18c-3.71,10-10.68,20.09-24.73,20.78l-.92-6.5c9.17-2.9,13.58-7.89,16.48-15l1-2.44h-2.32a3.49,3.49,0,0,1-3.48-2.55l-20.55-54h10.57l15,42.14a51.58,51.58,0,0,1,2.09,6.85h1.63l2.44-6.85,14.74-42.14h10.68Z" transform="translate(-16.76 -555.47)"/><path d="M1800.06,1433.88c-7.43,0-10.1,2.67-10.1,9.52v9.06h18.11v7.78H1790V1509h-9.87v-48.75h-10.21V1453l10.21-.58v-10.1c0-10.57,4.41-16.6,16.49-16.6a155.33,155.33,0,0,1,15.9.81l-.81,7.31Z" transform="translate(-16.76 -555.47)"/><path d="M1869.37,1480.78c0,21.71-7.09,29.72-26.59,29.72s-26.58-8-26.58-29.72,7.19-29.71,26.58-29.71S1869.37,1459.19,1869.37,1480.78Zm-42.84,0c0,16.49,4,21.36,16.25,21.36s16.37-4.87,16.37-21.36-4.06-21.36-16.37-21.36S1826.53,1464.3,1826.53,1480.78Z" transform="translate(-16.76 -555.47)"/><path d="M1919.05,1460.35h-3.25c-6.38,0-12.19,2.67-21.12,7.2V1509h-9.87v-56.53h7.66l1,8.94c8.13-6.5,16.49-10.33,24.15-10.33h2.55Z" transform="translate(-16.76 -555.47)"/><path d="M2005,1508.41c-10.68.7-22.87.7-34.36.7-9.41,0-15.33-5.34-15.44-13.93v-52.47c.11-8.59,6-13.93,15.44-13.93,11.49,0,23.68,0,34.36.69l-.46,8h-32.16c-4.76,0-7,2.33-7,7.67v17.41H2000v8.24h-34.6v21.94c0,5.46,2.21,7.78,7,7.78h32.16Z" transform="translate(-16.76 -555.47)"/><path d="M2040.25,1483.45l-16,25.54h-10.79l18.92-29.13-17.53-27.4h10.68l14.51,23.33h2.79l14.51-23.33H2068l-17.53,27.4,18.92,29.13h-10.68l-16.13-25.54Z" transform="translate(-16.76 -555.47)"/><path d="M2132.89,1481c0,21.82-6.85,29.37-21.36,29.37a40.3,40.3,0,0,1-20.89-5.81c.35,4,.35,7.43.35,11.38v16.37h-9.87v-79.87h8.13l.81,9c6.15-6.5,15.32-10.44,23.45-10.44C2127.32,1451.07,2132.89,1461.4,2132.89,1481Zm-10.1,0c0-16-3.59-21.36-12.53-21.36-6.16,0-11.5,2.78-19.27,8.59v30.18c7.08,1.86,12.07,3.37,18.11,3.37C2119,1501.8,2122.79,1497.62,2122.79,1481Z" transform="translate(-16.76 -555.47)"/><path d="M2193.61,1500.64l1,6.61c-5.34,2.21-15.44,3.14-21.94,3.14-19.5,0-27.05-8.13-27.05-29.84,0-22.17,7.78-29.48,26-29.48,17.06,0,24.26,6.26,24.26,18.45.12,10.1-4.06,16-13.47,16h-26.23c.93,13.47,6.15,16.49,17.76,16.49A156.61,156.61,0,0,0,2193.61,1500.64ZM2156,1477.88h23.91c5.11,0,6.15-4.18,6.15-8.36-.11-7.19-3.83-10.1-13.93-10.1C2160.41,1459.42,2156.34,1463.6,2156,1477.88Z" transform="translate(-16.76 -555.47)"/><path d="M2245,1460.35h-3.25c-6.39,0-12.19,2.67-21.13,7.2V1509h-9.87v-56.53h7.66l1.05,8.94c8.12-6.5,16.48-10.33,24.14-10.33h2.56Z" transform="translate(-16.76 -555.47)"/><path d="M2265,1428.43a2.7,2.7,0,0,1,3,3v6.61c0,2.09-.93,3-3,3h-4.64c-2,0-3-.93-3-3v-6.61a2.75,2.75,0,0,1,3-3Zm-7.19,80.56v-56.53h9.75V1509Z" transform="translate(-16.76 -555.47)"/><path d="M2370.06,1466.62V1509h-9.75v-39.58c-.11-7-2.55-10-8.82-10-5.8,0-10,2.56-18.57,8.71V1509h-9.52v-39.58c0-7.32-2.91-10-8.83-10-5.68,0-9.86,2.44-18.57,8.71V1509h-9.87v-56.53h8.13l.58,8.94c7.89-6.85,15.21-10.33,23.1-10.33s12.65,3.36,14.28,10.1c7.78-6.74,15.21-10.1,22.75-10.1C2364.72,1451.07,2370.06,1456.41,2370.06,1466.62Z" transform="translate(-16.76 -555.47)"/><path d="M2433,1500.64l1,6.61c-5.34,2.21-15.44,3.14-21.94,3.14-19.5,0-27.05-8.13-27.05-29.84,0-22.17,7.78-29.48,26-29.48,17.06,0,24.26,6.26,24.26,18.45.11,10.1-4.06,16-13.47,16h-26.23c.93,13.47,6.15,16.49,17.76,16.49A156.74,156.74,0,0,0,2433,1500.64Zm-37.62-22.76h23.92c5.11,0,6.15-4.18,6.15-8.36-.11-7.19-3.83-10.1-13.93-10.1C2399.79,1459.42,2395.72,1463.6,2395.37,1477.88Z" transform="translate(-16.76 -555.47)"/><path d="M2499.86,1466.62V1509H2490v-39.58c0-7.55-2.32-10-8.13-10-6.73,0-12.77,3.37-21.82,8.83V1509h-9.87v-56.53h8.36l.69,8.94c8.59-6.62,17-10.33,25.31-10.33C2494.51,1451.07,2499.86,1456.41,2499.86,1466.62Z" transform="translate(-16.76 -555.47)"/><path d="M2531.78,1493.44c0,5.45,2.09,7.54,7.66,7.54H2548l1.16,7.55a59.56,59.56,0,0,1-12.77,1.51c-9.51,0-14.51-5.46-14.51-15.33v-34.47H2511.7V1453l10.21-.58v-16.72h9.87v16.72h18v7.78h-18Z" transform="translate(-16.76 -555.47)"/><path d="M2607.94,1469.18V1509h-7.78l-1.16-9.4c-4.41,4.53-12.89,10.45-23.34,10.45-10.1,0-16.94-5.57-16.94-15.79v-6.15c0-8.82,5.8-13.93,15.67-13.93H2598v-5c0-7-2.55-9.76-11.49-9.76-5.92,0-15.67.7-24.26,1.51l-.93-7.31a187.13,187.13,0,0,1,27.28-2.55C2601.09,1451.07,2607.94,1455.48,2607.94,1469.18Zm-10,23.91V1481.6l-21.82.11c-5.46.24-7.31,3-7.31,7.78v3.6c0,5.92,2.67,8.47,8.82,8.47C2583.21,1501.68,2591.34,1498.89,2598,1493.09Z" transform="translate(-16.76 -555.47)"/><path d="M2635.45,1493.44c0,5,2.79,7.54,7.78,7.54h5.46l1.16,7.55c-2.21,1-7.55,1.51-10.34,1.51-8.35,0-13.81-5.11-13.81-14.4v-67.91h9.87Z" transform="translate(-16.76 -555.47)"/><path d="M1825.83,1654.36c-10.68.7-22.87.7-34.36.7-9.4,0-15.32-5.34-15.44-13.94v-52.47c.12-8.59,6-13.93,15.44-13.93,11.49,0,23.68,0,34.36.7l-.46,8h-32.16c-4.76,0-7,2.32-7,7.66v17.41h34.59v8.25h-34.59v21.94c0,5.45,2.2,7.77,7,7.77h32.16Z" transform="translate(-16.76 -555.47)"/><path d="M1883.07,1599.68l-1.28,6.39c-5.11-.47-11.38-.7-15.33-.7-13.46,0-18.11,4.76-18.11,21.24S1853,1648,1866.46,1648a120.56,120.56,0,0,0,16.61-1.16l1,6.62a61.78,61.78,0,0,1-19.39,2.9c-19.5,0-26.81-7.89-26.81-29.72s7.31-29.6,26.93-29.6C1869.83,1597,1877.49,1597.59,1883.07,1599.68Z" transform="translate(-16.76 -555.47)"/><path d="M1947,1626.73c0,21.71-7.08,29.72-26.58,29.72s-26.59-8-26.59-29.72,7.2-29.72,26.59-29.72S1947,1605.14,1947,1626.73Zm-42.83,0c0,16.48,3.94,21.36,16.25,21.36s16.37-4.88,16.37-21.36-4.07-21.36-16.37-21.36S1904.2,1610.25,1904.2,1626.73Z" transform="translate(-16.76 -555.47)"/><path d="M2012.16,1612.57v42.37h-9.87v-39.59c0-7.54-2.32-10-8.12-10-6.74,0-12.77,3.37-21.83,8.82v40.75h-9.87V1598.4h8.36l.7,8.94c8.59-6.61,17-10.33,25.31-10.33C2006.82,1597,2012.16,1602.35,2012.16,1612.57Z" transform="translate(-16.76 -555.47)"/><path d="M2080.42,1626.73c0,21.71-7.08,29.72-26.58,29.72s-26.59-8-26.59-29.72,7.2-29.72,26.59-29.72S2080.42,1605.14,2080.42,1626.73Zm-42.84,0c0,16.48,4,21.36,16.26,21.36s16.37-4.88,16.37-21.36-4.07-21.36-16.37-21.36S2037.58,1610.25,2037.58,1626.73Z" transform="translate(-16.76 -555.47)"/><path d="M2179.8,1612.57v42.37H2170v-39.59c-.11-7-2.55-10-8.82-10-5.8,0-10,2.55-18.57,8.71v40.86h-9.52v-39.59c0-7.31-2.9-10-8.82-10-5.69,0-9.87,2.44-18.58,8.71v40.86h-9.87V1598.4H2104l.58,8.94c7.89-6.85,15.21-10.33,23.1-10.33s12.66,3.37,14.28,10.1c7.78-6.73,15.21-10.1,22.76-10.1C2174.46,1597,2179.8,1602.35,2179.8,1612.57Z" transform="translate(-16.76 -555.47)"/><path d="M2205.22,1574.37a2.7,2.7,0,0,1,3,3V1584c0,2.09-.93,3-3,3h-4.64c-2,0-3-.93-3-3v-6.62a2.75,2.75,0,0,1,3-3Zm-7.2,80.57V1598.4h9.76v56.54Z" transform="translate(-16.76 -555.47)"/><path d="M2268.72,1599.68l-1.28,6.39c-5.1-.47-11.37-.7-15.32-.7-13.47,0-18.11,4.76-18.11,21.24s4.64,21.36,18.11,21.36a120.33,120.33,0,0,0,16.6-1.16l1.05,6.62a61.78,61.78,0,0,1-19.39,2.9c-19.5,0-26.82-7.89-26.82-29.72s7.32-29.6,26.94-29.6C2255.49,1597,2263.15,1597.59,2268.72,1599.68Z" transform="translate(-16.76 -555.47)"/><path d="M2325.72,1598.75l-.81,7.2c-7.08-.23-14.39-.58-21.48-.58-10.44-.12-13.93.12-13.93,7.2,0,5.92,2.79,6.85,8.25,8.12l16.48,3.72c8.94,2.2,13.12,5.92,13.12,15.55,0,13.93-7.78,16.26-24.15,16.26a144.82,144.82,0,0,1-22.17-1.63l.7-7.2c5.57.35,12.19.58,19.5.47,12.65,0,16.6-1.16,16.6-7.9,0-5.57-3.48-6.61-8.94-7.89l-16.25-3.71c-9.17-2.21-12.77-6.51-12.77-15.79,0-13.12,6.62-15.79,22.05-15.56A199.58,199.58,0,0,1,2325.72,1598.75Z" transform="translate(-16.76 -555.47)"/></svg>